<?xml version="1.0" standalone="no"?>
<!DOCTYPE svg PUBLIC "-//W3C//DTD SVG 20010904//EN"
 "http://www.w3.org/TR/2001/REC-SVG-20010904/DTD/svg10.dtd">
<svg version="1.0" xmlns="http://www.w3.org/2000/svg"
 width="512.000000pt" height="512.000000pt" viewBox="0 0 512.000000 512.000000"
 preserveAspectRatio="xMidYMid meet">

<g transform="translate(0.000000,512.000000) scale(0.100000,-0.100000)"
fill="#000000" stroke="none">
<path d="M790 5109 c-57 -23 -93 -80 -92 -146 l1 -43 -122 0 c-123 0 -181 -11
-248 -46 -95 -48 -177 -148 -209 -252 -20 -63 -20 -98 -20 -2156 0 -1739 3
-2100 14 -2142 42 -160 175 -283 336 -314 34 -6 686 -10 1854 -10 l1801 0 458
458 457 457 0 1821 c0 1788 0 1823 -20 1886 -32 104 -114 204 -209 252 -67 35
-125 46 -248 46 l-122 0 0 43 c1 56 -13 88 -50 120 -100 84 -241 15 -241 -118
l0 -45 -283 0 -283 0 0 49 c2 84 -61 146 -147 146 -90 0 -147 -61 -147 -155
l0 -40 -282 2 -283 3 3 37 c7 79 -67 158 -148 158 -81 0 -155 -79 -148 -158
l3 -37 -283 -3 -282 -2 0 40 c0 94 -57 155 -147 155 -86 0 -149 -62 -147 -146
l0 -49 -283 0 -283 0 0 49 c0 106 -103 178 -200 140z m4000 -2746 l0 -1347
-27 -28 -27 -28 -212 0 c-250 0 -289 -9 -367 -85 -86 -85 -92 -107 -95 -365
l-3 -225 -27 -28 -26 -27 -1732 0 c-1251 0 -1748 3 -1786 11 -65 14 -130 73
-147 134 -8 29 -11 512 -11 1688 l0 1647 2230 0 2230 0 0 -1347z"/>
<path d="M2277 3293 c-4 -3 -7 -154 -7 -334 l0 -327 75 -628 c41 -345 75 -634
75 -641 0 -10 31 -13 139 -13 l139 0 6 38 c4 20 38 302 76 626 l70 588 0 349
0 349 -283 0 c-156 0 -287 -3 -290 -7z"/>
<path d="M2290 865 l0 -265 273 2 272 3 3 263 2 262 -275 0 -275 0 0 -265z"/>
</g>
</svg>
