<?xml version="1.0" standalone="no"?>
<!DOCTYPE svg PUBLIC "-//W3C//DTD SVG 20010904//EN"
 "http://www.w3.org/TR/2001/REC-SVG-20010904/DTD/svg10.dtd">
<svg version="1.0" xmlns="http://www.w3.org/2000/svg"
 width="512.000000pt" height="512.000000pt" viewBox="0 0 512.000000 512.000000"
 preserveAspectRatio="xMidYMid meet">

<g transform="translate(0.000000,512.000000) scale(0.100000,-0.100000)"
fill="#000000" stroke="none">
<path d="M2370 5004 c-813 -75 -1511 -513 -1922 -1206 -158 -268 -264 -571
-315 -898 -24 -160 -24 -520 0 -680 102 -666 439 -1230 971 -1627 320 -240
700 -396 1116 -460 160 -24 520 -24 680 0 671 103 1240 446 1640 987 287 389
461 899 464 1362 l1 146 -30 44 c-84 120 -263 117 -339 -5 -27 -44 -30 -57
-37 -195 -14 -236 -51 -418 -127 -622 -185 -496 -561 -905 -1042 -1134 -471
-224 -1012 -258 -1505 -94 -838 278 -1405 1060 -1405 1938 0 786 455 1503
1170 1844 477 226 1013 258 1520 90 312 -103 579 -272 811 -511 l104 -108
-370 -5 -371 -5 -49 -26 c-138 -71 -150 -258 -22 -346 l40 -28 634 -3 c612 -2
634 -2 671 17 59 30 99 81 112 144 7 37 10 236 8 643 -3 586 -3 589 -25 630
-60 112 -182 145 -290 78 -30 -19 -55 -45 -70 -73 -23 -44 -23 -48 -23 -364
l0 -320 -107 104 c-370 357 -836 585 -1353 664 -101 15 -447 27 -540 19z"/>
</g>
</svg>
